#!OML:ASF I:\Actors\actors\Patient Classification 2\Patient 1\Session 1\actor1.ASF
:FULLY-SPECIFIED
:DEGREES
700
root -0.772641 18.629 6.74821 2.38042 -3.3374 -5.72996
lowerback 1.19912 0.594965 2.54992
upperback -2.5484 0.921513 1.89085
thorax -3.28427 0.420214 0.479109
lowerneck -10.7772 -1.4343 -1.513
upperneck 27.669 -2.17209 1.55723
head 10.6821 -0.97745 0.551401
rclavicle 2.01269e-015 2.64384e-014
rhumerus -47.148 0.178317 -88.7803
rradius 44.3531
rwrist 19.4635
rhand -2.36577 -33.7866
rfingers 7.12502
rthumb 23.3225 -422.394
lclavicle 2.01269e-015 2.64384e-014
lhumerus -41.4251 1.20285 90.7167
lradius 37.4874
lwrist -18.8716
lhand 4.68813 -24.9732
lfingers 7.12502
lthumb 30.0725 2.60091
rfemur 9.21287 2.25616 19.6142
rtibia 1.27222e-014
rfoot -17.9121 -9.96224
rtoes -10.4896
lfemur -3.24019 -6.44582 -9.06377
ltibia 24.3139
lfoot -25.4673 12.6811
ltoes -56.736
701
root -0.773061 18.6291 6.74354 2.37816 -3.27476 -5.71293
lowerback 1.20554 0.59806 2.52489
upperback -2.54654 0.925253 1.89376
thorax -3.28633 0.422766 0.495891
lowerneck -10.7808 -1.44962 -1.54242
upperneck 27.6405 -2.19638 1.59269
head 10.6735 -0.987328 0.566167
rclavicle 8.07563e-015 4.37326e-015
rhumerus -47.107 0.110484 -88.6332
rradius 44.4548
rwrist 19.5019
rhand -2.50661 -33.9073
rfingers 7.12502
rthumb 23.1874 -422.532
lclavicle 8.07563e-015 4.37326e-015
lhumerus -41.4051 1.59289 90.2524
lradius 37.4218
lwrist -18.9876
lhand 4.50517 -24.9115
lfingers 7.12502
lthumb 29.8979 2.69422
rfemur 9.20843 2.19328 19.596
rtibia 0
rfoot -17.9034 -9.95668
rtoes -10.3861
lfemur -3.26409 -6.5246 -9.07653
ltibia 24.3096
lfoot -25.4872 12.6765
ltoes -56.7028
702
root -0.773832 18.6291 6.73777 2.37706 -3.21649 -5.72173
lowerback 1.20745 0.609749 2.53188
upperback -2.53074 0.940642 1.89274
thorax -3.27081 0.430467 0.490346
lowerneck -10.8124 -1.47186 -1.53178
upperneck 27.6116 -2.2265 1.58354
head 10.6693 -1.00077 0.557118
rclavicle -5.57218e-015 -2.0276e-014
rhumerus -47.0219 0.00277404 -88.4918
rradius 44.4801
rwrist 19.4414
rhand -5.64488 -32.831
rfingers 7.12502
rthumb 20.1737 -421.804
lclavicle -5.57218e-015 -2.0276e-014
lhumerus -41.3352 1.97025 89.7967
lradius 37.376
lwrist -19.0872
lhand 4.40521 -24.8659
lfingers 7.12502
lthumb 29.8025 2.757
rfemur 9.19985 2.13532 19.6092
rtibia 3.18055e-015
rfoot -17.8918 -9.95037
rtoes -10.252
lfemur -3.29006 -6.53328 -9.04762
ltibia 24.2965
lfoot -25.4556 12.637
ltoes -56.726
703
root -0.773999 18.6293 6.73175 2.3614 -3.14902 -5.75843
lowerback 1.21341 0.622267 2.60671
upperback -2.4897 0.958269 1.88667
thorax -3.23038 0.43784 0.441623
lowerneck -10.883 -1.49727 -1.57895
upperneck 27.5813 -2.26544 1.63827
head 10.674 -1.01642 0.579555
rclavicle 2.93829e-015 -1.92821e-014
rhumerus -46.8766 -0.142968 -88.3414
rradius 44.4184
rwrist 19.4039
rhand -2.58062 -33.74
rfingers 7.12502
rthumb 23.1164 -422.373
lclavicle 2.93829e-015 -1.92821e-014
lhumerus -41.2143 2.24716 89.4123
lradius 37.2987
lwrist -19.1253
lhand 4.22856 -24.881
lfingers 7.12502
lthumb 29.6339 2.77193
rfemur 9.20709 2.06932 19.6526
rtibia -1.11319e-014
rfoot -17.9067 -9.94759
rtoes -10.1514
lfemur -3.30602 -6.50769 -8.98403
ltibia 24.2798
lfoot -25.3974 12.5569
ltoes -56.7308
704
root -0.774413 18.6295 6.72609 2.35416 -3.0738 -5.75704
lowerback 1.23392 0.623371 2.60404
upperback -2.47446 0.960278 1.89401
thorax -3.22636 0.439132 0.450413
lowerneck -10.9569 -1.51336 -1.66118
upperneck 27.5889 -2.28676 1.70328
head 10.6938 -1.02628 0.613899
rclavicle 1.84311e-014 5.96354e-016
rhumerus -46.7929 -0.19984 -88.2116
rradius 44.4154
rwrist 19.4042
rhand -7.45169 -32.1221
rfingers 7.12502
rthumb 18.4364 -421.268
lclavicle 1.84311e-014 5.96354e-016
lhumerus -41.1484 2.50266 89.1023
lradius 37.236
lwrist -19.182
lhand 4.10041 -24.9289
lfingers 7.12502
lthumb 29.5116 2.74566
rfemur 9.20564 1.99429 19.6536
rtibia -4.77083e-015
rfoot -17.9154 -9.9567
rtoes -10.1508
lfemur -3.33151 -6.59225 -8.98186
ltibia 24.2712
lfoot -25.3999 12.5702
ltoes -56.6896
